<?xml version="1.0" encoding="utf-8"?>
<!-- Generator: Adobe Illustrator 27.5.0, SVG Export Plug-In . SVG Version: 6.00 Build 0)  -->
<svg version="1.1" id="Layer_1" xmlns="http://www.w3.org/2000/svg" xmlns:xlink="http://www.w3.org/1999/xlink" x="0px" y="0px"
	 viewBox="0 0 354.486 198.827" style="enable-background:new 0 0 354.486 198.827;" xml:space="preserve">
<g>
	<g>
		<g>
			<g>
				<path style="fill:#222222;" d="M260.903,65.005c0,0.778-0.631,1.41-1.409,1.41c-0.779,0-1.411-0.632-1.411-1.41
					c0-0.779,0.632-1.411,1.411-1.411C260.272,63.594,260.903,64.226,260.903,65.005z"/>
				<path style="fill:#222222;" d="M261.876,14.875c0,0.779-0.631,1.41-1.41,1.41s-1.411-0.631-1.411-1.41s0.632-1.411,1.411-1.411
					S261.876,14.096,261.876,14.875z"/>
				<g>
					<path style="fill:#424141;" d="M272.081,65.405h-12.499c-0.292,0-0.527-0.235-0.527-0.527c0-0.291,0.235-0.526,0.527-0.526
						h12.499c4.947,0,5.418-3.461,5.422-3.496l-0.004-40.647c0-1.974-0.445-3.363-1.324-4.133c-0.879-0.769-1.897-0.644-1.94-0.635
						l-13.424,0.006c-0.291,0-0.527-0.236-0.527-0.527c0-0.292,0.236-0.527,0.527-0.527h13.35c-0.015-0.003,1.44-0.205,2.689,0.875
						c1.13,0.976,1.704,2.638,1.704,4.941v40.71C278.545,61.025,277.954,65.405,272.081,65.405z"/>
					<path style="fill:#222222;" d="M282.485,53.777c0,2.541-2.06,4.601-4.602,4.601l0,0c-2.541,0-4.6-2.06-4.6-4.601V25.036
						c0-2.541,2.059-4.601,4.6-4.601l0,0c2.541,0,4.602,2.06,4.602,4.601V53.777z"/>
					<path style="fill:#424141;" d="M281.782,52.993c0,2.32-1.744,4.199-3.898,4.199l0,0c-2.152,0-3.896-1.879-3.896-4.199V26.762
						c0-2.319,1.744-4.198,3.896-4.198l0,0c2.154,0,3.898,1.879,3.898,4.198V52.993z"/>
					<path style="fill:#6C6A6A;" d="M275.799,30.175c0,0.359-0.271,0.65-0.604,0.65l0,0c-0.334,0-0.604-0.291-0.604-0.65v-4.065
						c0-0.359,0.27-0.65,0.604-0.65l0,0c0.334,0,0.604,0.291,0.604,0.65V30.175z"/>
				</g>
			</g>
			<path style="fill:#222222;" d="M256.415,177.88c0,3.131-2.537,5.669-5.669,5.669h-61.87c-3.132,0-5.67-2.538-5.67-5.669v-3.685
				c0-3.131,2.538-5.669,5.67-5.669h61.87c3.132,0,5.669,2.538,5.669,5.669V177.88z"/>
			<path style="fill:#E3A018;" d="M325.296,79.792l-43.563-10.95l-15.025-47.911C264.31,7.497,256.079,6.809,256.079,6.809H32.923
				c0,0-8.049-0.642-11.866,14.122l-7.224,21.644l7.224,100.229h245.651v-0.114l61.388-0.055l16.517-22.372l-6.613-26.925
				C337.999,93.338,336.676,81.824,325.296,79.792z"/>
			<path style="opacity:0.4;fill:#F2A919;" d="M66.868,22.423c25.541-3.164,51.304-4.662,77.039-4.707
				c25.533-0.045,51.041,1.868,76.32,5.436c12.458,1.758,24.908,3.75,37.246,6.221c4.037,0.809,8.352,1.515,12.643,2.427
				l-3.408-10.868C264.31,7.497,256.079,6.809,256.079,6.809H32.923c0,0-8.049-0.642-11.866,14.122l-3.568,10.691
				C33.564,26.962,50.306,24.475,66.868,22.423z"/>
			<polygon style="fill:#10475E;" points="268.591,26.936 271.33,52.477 287.151,100.027 283.349,67.954 			"/>
			<path style="fill:#F5BF1D;" d="M333.025,111.559l-45.874-11.531L271.33,52.477v-2.9c0-14.133-11.191-14.872-11.191-14.872H151.94
				h-19.898H23.845c0,0-11.191,0.739-11.191,14.872v128.336H271.33v-0.122l64.643-0.057l10.428-16.61v-35.3
				C346.401,125.823,345.009,113.697,333.025,111.559z"/>
			<path style="fill:#F2A919;" d="M271.663,53.478l-0.333-1.001v-2.9c0-14.133-11.191-14.872-11.191-14.872H23.845
				c0,0-11.191,0.739-11.191,14.872v3.901H271.663z"/>
			<path style="fill:#F5BF1D;" d="M271.33,50.145v-0.568c0-14.133-11.191-14.872-11.191-14.872H23.845
				c0,0-11.191,0.739-11.191,14.872v0.568H271.33z"/>
			<rect x="12.653" y="130.005" style="fill:#222222;" width="333.748" height="11.927"/>
			<rect x="12.653" y="144.759" style="fill:#222222;" width="333.748" height="6.385"/>
			<path style="fill:#FFFFFF;" d="M260.139,34.704c0,0-4.013,0.03-11.036,0.084c-7.021,0.037-17.055,0.164-29.093,0.185
				c-24.077,0.063-56.181,0.146-88.283,0.23c-32.103-0.084-64.206-0.167-88.283-0.229c-6.019-0.033-11.537-0.063-16.428-0.089
				c-1.212,0.01-2.43-0.063-3.525,0.017c-1.111,0.16-2.161,0.493-3.126,0.896c-1.916,0.856-3.451,2.102-4.534,3.464
				c-0.584,0.653-0.952,1.4-1.368,2.057c-0.293,0.72-0.652,1.364-0.835,2.019c-0.179,0.655-0.402,1.249-0.503,1.817
				c-0.096,0.569-0.184,1.087-0.262,1.55c-0.139,0.928-0.119,1.654-0.166,2.138c-0.028,0.485-0.043,0.735-0.043,0.735
				s0.011-0.251,0.031-0.736c0.039-0.483,0.01-1.21,0.134-2.143c0.071-0.466,0.151-0.985,0.239-1.558
				c0.092-0.571,0.308-1.171,0.477-1.833c0.175-0.662,0.524-1.317,0.81-2.048c0.41-0.67,0.773-1.432,1.354-2.104
				c1.076-1.398,2.62-2.69,4.562-3.593c0.979-0.427,2.04-0.782,3.189-0.966c1.178-0.102,2.335-0.043,3.566-0.073
				c4.891-0.026,10.408-0.056,16.428-0.089c24.077-0.063,56.181-0.146,88.283-0.229c32.103,0.084,64.206,0.168,88.283,0.23
				c12.038,0.021,22.071,0.147,29.093,0.184C256.126,34.674,260.139,34.704,260.139,34.704z"/>
			<g>
				<path style="fill:#222222;" d="M329.763,167.938c-2.879-0.229-5.049,1.807-4.843,4.544c0.202,2.737,2.706,5.141,5.585,5.369
					c2.881,0.227,9.408-1.465,9.203-4.201C339.503,170.91,332.643,168.164,329.763,167.938z"/>
				<path d="M330.348,168.543c-2.714-0.216-4.762,1.703-4.566,4.287c0.192,2.582,2.55,4.848,5.268,5.062
					c2.718,0.216,8.875-1.377,8.68-3.961C339.536,171.348,333.064,168.755,330.348,168.543z"/>
			</g>
			<g>
				<g>
					<g>
						<path style="fill:#FABF05;" d="M100.931,167.131c0-13.749-11.723-24.894-26.184-24.894c-14.461,0-26.184,11.145-26.184,24.894
							c0,3.697,0.85,7.203,2.37,10.359h-4.789c-1.878-4.041-2.932-8.541-2.932-13.293c0-17.414,14.119-31.534,31.535-31.534
							c17.414,0,31.535,14.12,31.535,31.534c0,4.752-1.055,9.252-2.935,13.293h-4.787
							C100.081,174.334,100.931,170.828,100.931,167.131z"/>
						<path d="M74.747,142.237c14.461,0,26.184,11.145,26.184,24.894c0,3.697-0.85,7.203-2.37,10.359H50.933
							c-1.521-3.156-2.37-6.662-2.37-10.359C48.563,153.382,60.286,142.237,74.747,142.237z"/>
					</g>
					<g>
						<path style="fill:#363635;" d="M52.481,169.756c0,12.299,9.967,22.267,22.266,22.267c12.294,0,22.265-9.968,22.265-22.267
							c0-12.293-9.971-22.264-22.265-22.264C62.448,147.492,52.481,157.463,52.481,169.756z"/>
						<path style="fill:#222222;" d="M52.481,169.756c0,12.299,9.967,22.267,22.266,22.267c12.294,0,22.265-9.968,22.265-22.267
							c0-12.293-9.971-22.264-22.265-22.264C62.448,147.492,52.481,157.463,52.481,169.756z"/>
						<path d="M59.64,169.756c0,8.345,6.765,15.107,15.107,15.107c8.342,0,15.105-6.763,15.105-15.107
							c0-8.341-6.764-15.103-15.105-15.103C66.404,154.652,59.64,161.415,59.64,169.756z"/>
						<path style="fill:#D5D3CB;" d="M60.954,169.756c0,7.62,6.176,13.793,13.793,13.793c7.615,0,13.79-6.173,13.79-13.793
							c0-7.615-6.175-13.79-13.79-13.79C67.13,155.966,60.954,162.141,60.954,169.756z"/>
						<g>
							<path style="fill:#4C4C49;" d="M67.829,161.54c-0.018-0.159-0.006-0.321,0.061-0.478c1.469-1.319,3.361-2.174,5.449-2.336
								c0.198,0.044,0.378,0.127,0.531,0.25c0.071,0.104,0.131,0.215,0.186,0.333v7.669c-0.041,0.106-0.094,0.2-0.152,0.295
								c-0.046,0.02-0.09,0.046-0.133,0.065c-0.127-0.012-0.25-0.037-0.369-0.075l-5.502-5.506
								C67.87,161.686,67.848,161.615,67.829,161.54z"/>
							<path style="fill:#4C4C49;" d="M63.798,169.116c-0.131-0.1-0.234-0.225-0.295-0.38c0.103-1.973,0.838-3.914,2.201-5.506
								c0.17-0.106,0.354-0.176,0.552-0.198c0.122,0.023,0.243,0.059,0.365,0.109l5.421,5.422c0.046,0.1,0.077,0.204,0.102,0.311
								c-0.018,0.049-0.031,0.099-0.047,0.145c-0.098,0.079-0.203,0.149-0.316,0.204H64
								C63.929,169.191,63.861,169.157,63.798,169.116z"/>
							<path style="fill:#4C4C49;" d="M66.432,177.081c-0.163,0.022-0.325,0.012-0.482-0.052c-1.345-1.444-2.231-3.322-2.427-5.408
								c0.038-0.197,0.116-0.377,0.238-0.534c0.104-0.072,0.213-0.137,0.331-0.189l7.667-0.133c0.103,0.038,0.203,0.087,0.294,0.146
								c0.025,0.043,0.046,0.089,0.069,0.132c-0.008,0.126-0.032,0.249-0.069,0.366l-5.409,5.602
								C66.572,177.037,66.501,177.064,66.432,177.081z"/>
							<path style="fill:#4C4C49;" d="M73.87,180.496c-0.1,0.129-0.227,0.232-0.382,0.291c-1.974-0.129-3.905-0.895-5.477-2.279
								c-0.104-0.171-0.169-0.359-0.19-0.557c0.026-0.12,0.063-0.243,0.114-0.362l5.498-5.347c0.101-0.041,0.208-0.072,0.313-0.094
								c0.05,0.016,0.092,0.032,0.143,0.051c0.078,0.096,0.143,0.201,0.197,0.316l-0.11,7.781
								C73.948,180.367,73.911,180.434,73.87,180.496z"/>
							<path style="fill:#4C4C49;" d="M81.661,161.54c0.023-0.159,0.01-0.321-0.057-0.478c-1.469-1.319-3.363-2.174-5.452-2.336
								c-0.196,0.044-0.376,0.127-0.529,0.25c-0.071,0.104-0.132,0.215-0.185,0.333v7.669c0.042,0.106,0.092,0.2,0.148,0.295
								c0.045,0.02,0.092,0.046,0.137,0.065c0.126-0.012,0.248-0.037,0.367-0.075l5.5-5.506
								C81.621,161.686,81.644,161.615,81.661,161.54z"/>
							<path style="fill:#4C4C49;" d="M85.696,169.116c0.129-0.1,0.234-0.225,0.296-0.38c-0.103-1.973-0.84-3.914-2.204-5.506
								c-0.168-0.106-0.352-0.176-0.55-0.198c-0.122,0.023-0.245,0.059-0.366,0.109l-5.423,5.422
								c-0.044,0.1-0.076,0.204-0.101,0.311c0.014,0.049,0.03,0.099,0.047,0.145c0.098,0.079,0.202,0.149,0.316,0.204h7.781
								C85.565,169.191,85.633,169.157,85.696,169.116z"/>
							<path style="fill:#4C4C49;" d="M83.063,177.081c0.161,0.022,0.324,0.012,0.481-0.052c1.344-1.444,2.232-3.322,2.426-5.408
								c-0.037-0.197-0.116-0.377-0.239-0.534c-0.103-0.072-0.212-0.137-0.329-0.189l-7.669-0.133
								c-0.104,0.038-0.2,0.087-0.294,0.146c-0.024,0.043-0.047,0.089-0.067,0.132c0.008,0.126,0.03,0.249,0.069,0.366l5.406,5.602
								C82.92,177.037,82.993,177.064,83.063,177.081z"/>
							<path style="fill:#4C4C49;" d="M75.623,180.496c0.101,0.129,0.227,0.232,0.385,0.291c1.972-0.129,3.903-0.895,5.471-2.279
								c0.108-0.171,0.175-0.359,0.192-0.557c-0.025-0.12-0.065-0.243-0.113-0.362l-5.494-5.347
								c-0.107-0.041-0.214-0.072-0.319-0.094c-0.048,0.016-0.091,0.032-0.14,0.051c-0.078,0.096-0.146,0.201-0.199,0.316
								l0.111,7.781C75.548,180.367,75.583,180.434,75.623,180.496z"/>
							<polygon style="fill:#4C4C49;" points="74.728,169.882 74.728,169.882 74.728,169.882 							"/>
							<polygon style="fill:#4C4C49;" points="74.728,169.882 74.728,169.882 74.728,169.882 							"/>
						</g>
						<path style="fill:#D5D3CB;" d="M70.694,169.756c0,2.24,1.814,4.053,4.053,4.053c2.236,0,4.049-1.813,4.049-4.053
							c0-2.235-1.813-4.048-4.049-4.048C72.509,165.708,70.694,167.52,70.694,169.756z"/>
						<path style="fill:#4C4C49;" d="M72.122,167.766c0,0.277,0.226,0.503,0.503,0.503c0.282,0,0.507-0.226,0.507-0.503
							c0-0.28-0.225-0.502-0.507-0.502C72.348,167.264,72.122,167.485,72.122,167.766z"/>
						<path style="fill:#4C4C49;" d="M74.224,167.046c0,0.278,0.224,0.503,0.504,0.503c0.275,0,0.506-0.225,0.506-0.503
							c0-0.28-0.231-0.503-0.506-0.503C74.447,166.543,74.224,166.766,74.224,167.046z"/>
						<path style="fill:#4C4C49;" d="M76.36,167.846c0,0.275,0.227,0.499,0.504,0.499c0.28,0,0.507-0.224,0.507-0.499
							c0-0.28-0.227-0.507-0.507-0.507C76.587,167.339,76.36,167.565,76.36,167.846z"/>
						<path style="fill:#4C4C49;" d="M72.122,172.176c0-0.278,0.226-0.506,0.503-0.506c0.282,0,0.507,0.227,0.507,0.506
							s-0.225,0.504-0.507,0.504C72.348,172.68,72.122,172.454,72.122,172.176z"/>
						<path style="fill:#4C4C49;" d="M71.135,170.07c0-0.278,0.226-0.506,0.504-0.506c0.28,0,0.505,0.227,0.505,0.506
							c0,0.277-0.225,0.503-0.505,0.503C71.36,170.573,71.135,170.348,71.135,170.07z"/>
						<path style="fill:#4C4C49;" d="M77.349,170.07c0-0.278,0.227-0.506,0.506-0.506c0.276,0,0.501,0.227,0.501,0.506
							c0,0.277-0.225,0.503-0.501,0.503C77.575,170.573,77.349,170.348,77.349,170.07z"/>
						<path style="fill:#4C4C49;" d="M74.224,172.895c0-0.279,0.224-0.501,0.504-0.501c0.275,0,0.506,0.222,0.506,0.501
							c0,0.279-0.231,0.506-0.506,0.506C74.447,173.4,74.224,173.174,74.224,172.895z"/>
						<path style="fill:#4C4C49;" d="M76.36,172.098c0-0.278,0.227-0.503,0.504-0.503c0.28,0,0.507,0.225,0.507,0.503
							c0,0.279-0.227,0.504-0.507,0.504C76.587,172.602,76.36,172.377,76.36,172.098z"/>
					</g>
				</g>
				<g>
					<path style="fill:#EF8317;" d="M43.212,164.197c0-17.414,14.119-31.534,31.535-31.534c17.414,0,31.535,14.12,31.535,31.534
						c0,4.752-1.055,9.252-2.935,13.293h-0.73c1.565-3.657,2.434-7.682,2.434-11.914c0-16.736-13.566-30.306-30.305-30.306
						c-16.738,0-30.308,13.569-30.308,30.306c0,4.232,0.872,8.257,2.433,11.914h-0.728
						C44.266,173.449,43.212,168.949,43.212,164.197z"/>
				</g>
			</g>
			<g>
				<path style="fill:#201E1E;" d="M318.241,165.955c-0.122-1.552-0.253-3.102-0.352-4.653h28.512
					c0.324,0.039,0.635,0.096,0.889,0.229c0.473,0.249,0.693,0.604,0.871,0.983l-0.119,6.211c0,0-5.892,8.842-9.946,10.142
					c-4.054,1.3-6.745,0.928-6.745,0.928l-11.765,0.05C319.569,179.129,318.4,168.015,318.241,165.955z"/>
				<path style="opacity:0.6;fill:#222222;" d="M324.657,161.302h21.744c0.324,0.039,0.635,0.096,0.889,0.229
					c0.473,0.249,0.693,0.604,0.871,0.983l-0.104,5.49C348.057,168.004,324.755,162.854,324.657,161.302z"/>
			</g>
			<g>
				<g>
					<path style="fill:#FABF05;" d="M317.39,167.131c0-13.749-11.727-24.894-26.186-24.894c-14.461,0-26.188,11.145-26.188,24.894
						c0,3.697,0.852,7.203,2.371,10.359h-4.787c-1.879-4.041-2.932-8.541-2.932-13.293c0-17.414,14.119-31.534,31.535-31.534
						c17.414,0,31.535,14.12,31.535,31.534c0,4.752-1.053,9.252-2.935,13.293h-4.785C316.54,174.334,317.39,170.828,317.39,167.131z
						"/>
					<g>
						<path style="fill:#EF8317;" d="M259.669,164.197c0-17.414,14.119-31.534,31.535-31.534c17.414,0,31.535,14.12,31.535,31.534
							c0,4.752-1.053,9.252-2.935,13.293h-0.729c1.564-3.657,2.438-7.682,2.438-11.914c0-16.736-13.568-30.306-30.309-30.306
							c-16.739,0-30.308,13.569-30.308,30.306c0,4.232,0.87,8.257,2.437,11.914h-0.732
							C260.722,173.449,259.669,168.949,259.669,164.197z"/>
					</g>
					<path d="M291.204,142.237c14.459,0,26.186,11.145,26.186,24.894c0,3.697-0.85,7.203-2.37,10.359h-47.632
						c-1.52-3.156-2.371-6.662-2.371-10.359C265.017,153.382,276.743,142.237,291.204,142.237z"/>
				</g>
				<g>
					<path style="fill:#363635;" d="M268.94,169.756c0,12.299,9.969,22.267,22.264,22.267c12.296,0,22.264-9.968,22.264-22.267
						c0-12.293-9.968-22.264-22.264-22.264C278.909,147.492,268.94,157.463,268.94,169.756z"/>
					<path style="fill:#222222;" d="M268.94,169.756c0,12.299,9.969,22.267,22.264,22.267c12.296,0,22.264-9.968,22.264-22.267
						c0-12.293-9.968-22.264-22.264-22.264C278.909,147.492,268.94,157.463,268.94,169.756z"/>
					<path d="M276.097,169.756c0,8.345,6.764,15.107,15.107,15.107c8.342,0,15.107-6.763,15.107-15.107
						c0-8.341-6.766-15.103-15.107-15.103C282.86,154.652,276.097,161.415,276.097,169.756z"/>
					<path style="fill:#D5D3CB;" d="M277.41,169.756c0,7.62,6.177,13.793,13.794,13.793c7.617,0,13.789-6.173,13.789-13.793
						c0-7.615-6.172-13.79-13.789-13.79C283.587,155.966,277.41,162.141,277.41,169.756z"/>
					<g>
						<path style="fill:#4C4C49;" d="M284.288,161.54c-0.022-0.159-0.008-0.321,0.057-0.478c1.469-1.319,3.363-2.174,5.453-2.336
							c0.196,0.044,0.373,0.127,0.526,0.25c0.073,0.104,0.134,0.215,0.187,0.333v7.669c-0.041,0.106-0.09,0.2-0.153,0.295
							c-0.042,0.02-0.087,0.046-0.13,0.065c-0.127-0.012-0.25-0.037-0.369-0.075l-5.501-5.506
							C284.329,161.686,284.306,161.615,284.288,161.54z"/>
						<path style="fill:#4C4C49;" d="M280.255,169.116c-0.131-0.1-0.234-0.225-0.297-0.38c0.102-1.973,0.838-3.914,2.203-5.506
							c0.17-0.106,0.355-0.176,0.551-0.198c0.123,0.023,0.243,0.059,0.363,0.109l5.424,5.422c0.043,0.1,0.078,0.204,0.101,0.311
							c-0.014,0.049-0.03,0.099-0.048,0.145c-0.094,0.079-0.201,0.149-0.311,0.204h-7.784
							C280.386,169.191,280.319,169.157,280.255,169.116z"/>
						<path style="fill:#4C4C49;" d="M282.888,177.081c-0.163,0.022-0.324,0.012-0.482-0.052c-1.346-1.444-2.23-3.322-2.43-5.408
							c0.04-0.197,0.119-0.377,0.244-0.534c0.1-0.072,0.211-0.137,0.329-0.189l7.666-0.133c0.107,0.038,0.2,0.087,0.298,0.146
							c0.022,0.043,0.047,0.089,0.064,0.132c-0.006,0.126-0.031,0.249-0.069,0.366l-5.405,5.602
							C283.03,177.037,282.958,177.064,282.888,177.081z"/>
						<path style="fill:#4C4C49;" d="M290.324,180.496c-0.101,0.129-0.224,0.232-0.382,0.291c-1.97-0.129-3.903-0.895-5.473-2.279
							c-0.105-0.171-0.174-0.359-0.189-0.557c0.024-0.12,0.059-0.243,0.109-0.362l5.502-5.347c0.102-0.041,0.207-0.072,0.313-0.094
							c0.049,0.016,0.094,0.032,0.143,0.051c0.078,0.096,0.142,0.201,0.197,0.316l-0.107,7.781
							C290.402,180.367,290.367,180.434,290.324,180.496z"/>
						<path style="fill:#4C4C49;" d="M298.118,161.54c0.023-0.159,0.008-0.321-0.057-0.478c-1.47-1.319-3.364-2.174-5.455-2.336
							c-0.193,0.044-0.373,0.127-0.528,0.25c-0.068,0.104-0.13,0.215-0.181,0.333v7.669c0.037,0.106,0.089,0.2,0.15,0.295
							c0.043,0.02,0.09,0.046,0.135,0.065c0.123-0.012,0.245-0.037,0.367-0.075l5.499-5.506
							C298.078,161.686,298.103,161.615,298.118,161.54z"/>
						<path style="fill:#4C4C49;" d="M302.151,169.116c0.13-0.1,0.234-0.225,0.297-0.38c-0.105-1.973-0.839-3.914-2.207-5.506
							c-0.166-0.106-0.35-0.176-0.544-0.198c-0.127,0.023-0.245,0.059-0.37,0.109l-5.423,5.422c-0.042,0.1-0.072,0.204-0.097,0.311
							c0.012,0.049,0.027,0.099,0.047,0.145c0.096,0.079,0.202,0.149,0.313,0.204h7.783
							C302.021,169.191,302.091,169.157,302.151,169.116z"/>
						<path style="fill:#4C4C49;" d="M299.518,177.081c0.164,0.022,0.326,0.012,0.483-0.052c1.346-1.444,2.231-3.322,2.427-5.408
							c-0.04-0.197-0.117-0.377-0.24-0.534c-0.101-0.072-0.213-0.137-0.331-0.189l-7.665-0.133c-0.105,0.038-0.2,0.087-0.298,0.146
							c-0.022,0.043-0.043,0.089-0.066,0.132c0.008,0.126,0.033,0.249,0.068,0.366l5.411,5.602
							C299.377,177.037,299.448,177.064,299.518,177.081z"/>
						<path style="fill:#4C4C49;" d="M292.078,180.496c0.105,0.129,0.228,0.232,0.384,0.291c1.972-0.129,3.907-0.895,5.475-2.279
							c0.107-0.171,0.172-0.359,0.191-0.557c-0.025-0.12-0.061-0.243-0.111-0.362l-5.502-5.347c-0.1-0.041-0.207-0.072-0.313-0.094
							c-0.049,0.016-0.094,0.032-0.143,0.051c-0.079,0.096-0.142,0.201-0.197,0.316l0.108,7.781
							C292.003,180.367,292.038,180.434,292.078,180.496z"/>
						<polygon style="fill:#4C4C49;" points="291.185,169.882 291.185,169.882 291.185,169.882 						"/>
						<polygon style="fill:#4C4C49;" points="291.185,169.882 291.185,169.882 291.185,169.882 						"/>
					</g>
					<path style="fill:#D5D3CB;" d="M287.151,169.756c0,2.24,1.813,4.053,4.053,4.053c2.234,0,4.051-1.813,4.051-4.053
						c0-2.235-1.816-4.048-4.051-4.048C288.965,165.708,287.151,167.52,287.151,169.756z"/>
					<path style="fill:#4C4C49;" d="M288.577,167.766c0,0.277,0.229,0.503,0.508,0.503c0.281,0,0.506-0.226,0.506-0.503
						c0-0.28-0.225-0.502-0.506-0.502C288.806,167.264,288.577,167.485,288.577,167.766z"/>
					<path style="fill:#4C4C49;" d="M290.683,167.046c0,0.278,0.225,0.503,0.502,0.503c0.276,0,0.502-0.225,0.502-0.503
						c0-0.28-0.226-0.503-0.502-0.503C290.907,166.543,290.683,166.766,290.683,167.046z"/>
					<path style="fill:#4C4C49;" d="M292.817,167.846c0,0.275,0.227,0.499,0.505,0.499c0.278,0,0.505-0.224,0.505-0.499
						c0-0.28-0.226-0.507-0.505-0.507C293.044,167.339,292.817,167.565,292.817,167.846z"/>
					<path style="fill:#4C4C49;" d="M288.577,172.176c0-0.278,0.229-0.506,0.508-0.506c0.281,0,0.506,0.227,0.506,0.506
						s-0.225,0.504-0.506,0.504C288.806,172.68,288.577,172.454,288.577,172.176z"/>
					<path style="fill:#4C4C49;" d="M287.589,170.07c0-0.278,0.229-0.506,0.51-0.506c0.277,0,0.501,0.227,0.501,0.506
						c0,0.277-0.224,0.503-0.501,0.503C287.817,170.573,287.589,170.348,287.589,170.07z"/>
					<path style="fill:#4C4C49;" d="M293.808,170.07c0-0.278,0.225-0.506,0.501-0.506c0.281,0,0.507,0.227,0.507,0.506
						c0,0.277-0.226,0.503-0.507,0.503C294.032,170.573,293.808,170.348,293.808,170.07z"/>
					<path style="fill:#4C4C49;" d="M290.683,172.895c0-0.279,0.225-0.501,0.502-0.501c0.276,0,0.502,0.222,0.502,0.501
						c0,0.279-0.226,0.506-0.502,0.506C290.907,173.4,290.683,173.174,290.683,172.895z"/>
					<path style="fill:#4C4C49;" d="M292.817,172.098c0-0.278,0.227-0.503,0.505-0.503c0.278,0,0.505,0.225,0.505,0.503
						c0,0.279-0.226,0.504-0.505,0.504C293.044,172.602,292.817,172.377,292.817,172.098z"/>
				</g>
			</g>
			<path style="fill:#FABF05;" d="M271.33,49.576H13.833C13.833,49.576,123.985,56.236,271.33,49.576z"/>
			<path style="fill:#FFFFFF;" d="M193.205,85.949V74.804c0,0,0.5-6.325,6.875-7.083h16.263l-16.013,0.897
				c0,0-5.75,0.728-6.458,6.186L193.205,85.949z"/>
			<path style="fill:#FFFFFF;" d="M246.788,85.949V74.804c0,0-0.5-6.325-6.875-7.083H223.65l16.013,0.897
				c0,0,5.75,0.728,6.458,6.186L246.788,85.949z"/>
			<path style="fill:#222222;" d="M271.33,52.477l-10.288,0.061c0,0-6.3-0.662-6.02,6.758c0.279,7.419,0,29.678,0,29.678
				s-1.065,11.061,4.646,11.061c5.713,0,27.482-0.006,27.482-0.006L271.33,52.477z"/>
			<path style="fill:#10475E;" d="M271.591,54.492l-9.527,0.056c0,0-5.834-0.612-5.575,6.259c0.26,6.871,0,27.485,0,27.485
				s-0.986,10.242,4.304,10.242c5.291,0,25.452-0.005,25.452-0.005L271.591,54.492z"/>
			<path style="fill:#10475E;" d="M271.288,56.261l-8.762,0.05c0,0-5.365-0.562-5.127,5.757c0.238,6.32,0,25.277,0,25.277
				s-0.908,9.42,3.957,9.42C266.222,96.765,271.288,56.261,271.288,56.261z"/>
			<path style="fill:#222222;" d="M46.255,170.573H6.325v9.526c0,1.96,1.708,3.549,3.815,3.549h36.114V170.573z"/>
			<path style="fill:#222222;" d="M36.887,171.653H7.481v7.017c0,1.443,1.258,2.612,2.81,2.612h26.596V171.653z"/>
			<path style="fill:#222222;" d="M23.142,172.676H8.439v3.509c0,0.721,0.629,1.306,1.404,1.306h13.299V172.676z"/>
			<g>
				<path style="fill:#222222;" d="M264.22,103.154c0,0.826-0.67,1.498-1.498,1.498c-0.828,0-1.498-0.672-1.498-1.498
					c0-0.828,0.67-1.5,1.498-1.5C263.55,101.654,264.22,102.326,264.22,103.154z"/>
				<path style="fill:#222222;" d="M265.253,49.887c0,0.827-0.671,1.498-1.498,1.498c-0.828,0-1.5-0.671-1.5-1.498
					c0-0.828,0.672-1.5,1.5-1.5C264.582,48.387,265.253,49.059,265.253,49.887z"/>
				<g>
					<path style="fill:#424141;" d="M276.097,103.579h-13.281c-0.31,0-0.561-0.25-0.561-0.56c0-0.31,0.251-0.56,0.561-0.56h13.281
						c5.258,0,5.758-3.678,5.762-3.715l-0.004-43.19c0-2.098-0.474-3.574-1.408-4.392c-0.933-0.817-2.016-0.685-2.061-0.675
						l-14.264,0.006c-0.31,0-0.561-0.251-0.561-0.561c0-0.31,0.251-0.56,0.561-0.56h14.186c-0.016-0.004,1.529-0.218,2.856,0.93
						c1.201,1.036,1.811,2.803,1.811,5.251v43.258C282.966,98.926,282.337,103.579,276.097,103.579z"/>
					<path style="fill:#222222;" d="M287.151,91.224c0,2.7-2.188,4.89-4.889,4.89l0,0c-2.699,0-4.888-2.189-4.888-4.89v-30.54
						c0-2.7,2.189-4.889,4.888-4.889l0,0c2.701,0,4.889,2.188,4.889,4.889V91.224z"/>
					<path style="fill:#424141;" d="M286.405,90.391c0,2.465-1.854,4.462-4.143,4.462l0,0c-2.287,0-4.141-1.997-4.141-4.462V62.517
						c0-2.464,1.854-4.461,4.141-4.461l0,0c2.289,0,4.143,1.997,4.143,4.461V90.391z"/>
					<path style="fill:#6C6A6A;" d="M280.048,66.144c0,0.382-0.287,0.691-0.643,0.691l0,0c-0.354,0-0.642-0.31-0.642-0.691v-4.319
						c0-0.382,0.287-0.692,0.642-0.692l0,0c0.355,0,0.643,0.31,0.643,0.692V66.144z"/>
				</g>
			</g>
			<g>
				<g>
					<path style="fill:#222222;" d="M249.936,177.912v-106.1c0-3.705-3.441-6.708-7.688-6.708h-44.105
						c-4.244,0-7.686,3.003-7.686,6.708v106.1H249.936z"/>
					<path style="fill:#FABF05;" d="M247.45,177.912V73.56c0-3.644-3.176-6.597-7.095-6.597h-40.718
						c-3.918,0-7.095,2.953-7.095,6.597v104.352H247.45z"/>
					<path style="fill:#FABF05;" d="M247.45,177.912V73.56c0-3.644-3.176-6.597-7.095-6.597h-40.718
						c-3.918,0-7.095,2.953-7.095,6.597v104.352H247.45z"/>
					<path style="opacity:0.5;fill:#FABF05;" d="M228.205,134.346c-9.052,2.31-20.467,0.239-27.815-5.938
						c-3.064-2.574-5.639-5.618-7.847-8.929v58.434h54.907v-63.119C244.36,126.362,240.995,131.082,228.205,134.346z"/>
					<g>
						<g>
							<path style="fill:#222222;" d="M216.343,70.808H201.72c-3.361,0-6.087,2.999-6.087,6.7v38.726h20.71V70.808z"/>
							<path style="fill:#10475E;" d="M214.026,72.435h-11.162c-3.129,0-5.668,2.792-5.668,6.237v36.054h16.83V72.435z"/>
							<path style="fill:#10475E;" d="M213.087,73.567h-10.044c-2.816,0-5.1,2.669-5.1,5.961v34.458h15.145V73.567z"/>
						</g>
						<g>
							<path style="fill:#222222;" d="M223.65,70.808h14.622c3.361,0,6.088,2.999,6.088,6.7v38.726h-20.71V70.808z"/>
							<path style="fill:#10475E;" d="M225.966,72.435h11.162c3.129,0,5.668,2.792,5.668,6.237v36.054h-16.83V72.435z"/>
							<path style="fill:#10475E;" d="M226.905,73.567h10.045c2.816,0,5.1,2.669,5.1,5.961v34.458h-15.145V73.567z"/>
						</g>
					</g>
					<g>
						<rect x="217.974" y="66.963" style="fill:#FABF05;" width="3.029" height="110.949"/>
						<rect x="218.895" y="66.963" style="fill:#222222;" width="2.203" height="110.949"/>
					</g>
				</g>
				<g>
					<path style="fill:#FABF05;" d="M199.505,131.738c0,0.816-0.848,1.479-1.893,1.479l0,0c-1.047,0-1.895-0.662-1.895-1.479
						v-10.752c0-0.816,0.848-1.479,1.895-1.479l0,0c1.045,0,1.893,0.663,1.893,1.479V131.738z"/>
					<path style="fill:#222222;" d="M198.676,131.738c0,0.816-0.662,1.479-1.479,1.479l0,0c-0.816,0-1.479-0.662-1.479-1.479
						v-10.752c0-0.816,0.662-1.479,1.479-1.479l0,0c0.817,0,1.479,0.663,1.479,1.479V131.738z"/>
				</g>
			</g>
			<g>
				<path style="fill:#252525;" d="M178.259,65.104h-12.691h-5.256h-134.9c-3.918,0-7.096,2.953-7.096,6.597v44.785h141.996h5.256
					h19.787V71.701C185.354,68.058,182.178,65.104,178.259,65.104z"/>
				<path style="fill:#10475E;" d="M176.296,67.147h-12.36h-5.118H27.444c-3.816,0-6.91,2.691-6.91,6.013v40.826h138.283h5.118
					h19.27V73.16C183.206,69.839,180.112,67.147,176.296,67.147z"/>
				<path style="fill:#10475E;" d="M46.194,68.618H29.78c-3.695,0-6.693,2.489-6.693,5.563v37.77h23.107V68.618z"/>
				<rect x="48.144" y="68.618" style="fill:#10475E;" width="1.885" height="43.333"/>
				<rect x="51.976" y="68.618" style="fill:#10475E;" width="29.553" height="43.333"/>
				<rect x="83.476" y="68.618" style="fill:#10475E;" width="0.886" height="43.333"/>
				<rect x="117.31" y="68.618" style="fill:#10475E;" width="1.385" height="43.333"/>
				<rect x="120.643" y="68.618" style="fill:#10475E;" width="29.886" height="43.333"/>
				<rect x="152.476" y="68.618" style="fill:#10475E;" width="1.219" height="43.333"/>
				<path style="fill:#10475E;" d="M173.96,68.618h-18.317v43.333h25.01v-37.77C180.652,71.107,177.656,68.618,173.96,68.618z"/>
				<rect x="86.31" y="68.618" style="fill:#10475E;" width="29.052" height="43.333"/>
				<g>
					<g>
						<rect x="47.856" y="65.317" style="fill:#252525;" width="3" height="49.884"/>
					</g>
					<g>
						<rect x="82.374" y="65.317" style="fill:#252525;" width="3" height="49.884"/>
					</g>
					<g>
						<rect x="116.892" y="65.317" style="fill:#252525;" width="3" height="49.884"/>
					</g>
					<g>
						<rect x="151.409" y="65.317" style="fill:#252525;" width="3" height="49.884"/>
					</g>
				</g>
			</g>
			<g>
				<polygon style="opacity:0.4;fill:#EF9913;" points="197.288,26.868 241.689,26.868 239.782,13.202 197.288,13.202 				"/>
				<g>
					<polygon style="fill:#F5BF1D;" points="198.329,25.952 240.995,25.952 239.163,13.785 235.155,10.201 202.713,10.201 
						198.329,13.785 					"/>
					<polygon style="fill:#F2AC1A;" points="198.329,25.952 240.995,25.952 236.612,19.868 202.713,19.868 					"/>
					<polygon style="fill:#FEE21B;" points="202.713,19.868 236.612,19.868 235.155,10.201 202.713,10.201 					"/>
				</g>
			</g>
			<g>
				<polygon style="opacity:0.4;fill:#EF9913;" points="92.009,26.868 47.607,26.868 49.515,13.202 92.009,13.202 				"/>
				<g>
					<polygon style="fill:#F5BF1D;" points="90.968,25.952 48.302,25.952 50.134,13.785 54.142,10.201 86.584,10.201 90.968,13.785 
											"/>
					<polygon style="fill:#F2AC1A;" points="90.968,25.952 48.302,25.952 52.685,19.868 86.584,19.868 					"/>
					<polygon style="fill:#FEE21B;" points="86.584,19.868 52.685,19.868 54.142,10.201 86.584,10.201 					"/>
				</g>
			</g>
			<g>
				<path style="fill:#5D1707;" d="M22.312,152.601l-5.292-0.073c0,0-1.452-0.041-1.929,0.915l-1.594,3.645
					c0,0-0.133,0.575,0.746,0.536c0.881-0.04,5.224-0.234,5.224-0.234s0.827,0.017,1.43-0.477c0.599-0.493,2.216-3.728,2.216-3.728
					S23.376,152.522,22.312,152.601z"/>
				<path style="fill:#E3301F;" d="M19.866,153.403l-3.601-0.051c0,0-0.991-0.026-1.312,0.624l-1.089,2.483
					c0,0-0.09,0.394,0.505,0.365c0.602-0.027,3.559-0.158,3.559-0.158s0.566,0.008,0.975-0.329c0.408-0.335,1.508-2.534,1.508-2.534
					S20.522,153.273,19.866,153.403z"/>
				<g>
					<path style="fill:#DC4E14;" d="M17.613,122.438c1.142,0.509,2.293,1.36,3.001,2.491c0.733,1.161,0.983,2.546,1.038,3.923
						c0.048,1.164,0.005,2.334-0.011,3.492c-0.018,1.184-0.047,2.364-0.112,3.541c-0.062,1.072-0.131,2.15-0.331,3.201
						c-0.133,0.688-0.301,1.39-0.758,1.905c-0.574,0.651-1.346,1.092-2.055,1.54c-0.916,0.577-1.848,1.122-2.793,1.641
						c-0.863,0.475-2.972,2.004-3.048,1.434l-0.192-24.639l0.557-0.679c0.082,0.029,0.154,0.057,0.219,0.081
						c0.517,0.184,1.021,0.404,1.522,0.637C15.643,121.471,16.611,121.993,17.613,122.438z"/>
					<g>
						<path style="fill:#DC4E14;" d="M21.663,131.082c-0.006,0.423-0.016,0.843-0.021,1.262c-0.018,1.184-0.047,2.364-0.112,3.541
							c-0.062,1.072-0.131,2.15-0.331,3.201c-0.133,0.688-0.301,1.39-0.758,1.905c-0.574,0.651-1.346,1.092-2.055,1.54
							c-0.916,0.577-1.848,1.122-2.793,1.641c-0.863,0.475-2.972,2.004-3.048,1.434l-0.102-13.297L21.663,131.082z"/>
					</g>
				</g>
				<path style="fill:#E3301F;" d="M13.117,120.952c0,0,6.894,2.356,7.444,5.535c0.547,3.179-0.32,13.114-0.32,13.114
					s-0.013,0.937-1.078,1.58l0.54-11.282c0,0,0.392-4.102-2.065-5.652C15.18,122.699,13.117,120.952,13.117,120.952z"/>
			</g>
			<path style="fill:#DC4E14;" d="M343.689,120.27c2.787,5.268,2.691,10.783-0.213,12.319c-2.904,1.537-7.52-1.487-10.306-6.755
				c-2.788-5.268-2.692-10.784,0.213-12.321C336.287,111.977,340.901,115.001,343.689,120.27z"/>
			<path style="fill:#E3301F;" d="M342.351,130.706c0.273,0.516,0.264,1.056-0.022,1.206c-0.284,0.15-0.736-0.145-1.009-0.661
				c-0.272-0.517-0.264-1.057,0.021-1.207C341.626,129.894,342.077,130.191,342.351,130.706z"/>
			<path style="fill:#E3301F;" d="M342.277,119.474c2.04,3.854,1.97,7.891-0.155,9.015c-2.126,1.125-5.502-1.088-7.541-4.942
				c-2.04-3.854-1.971-7.892,0.155-9.017C336.862,113.405,340.237,115.619,342.277,119.474z"/>
		</g>
		<path style="fill:#FABF05;" d="M20.743,119.508h163.509C184.252,119.508,85.374,126.362,20.743,119.508z"/>
		<path style="fill:#FABF05;" d="M291.6,93.777l41.495,9.802C333.095,103.579,308.546,99.606,291.6,93.777z"/>
		<path style="fill:#FABF05;" d="M290.511,76.454l38.307,9.495C328.817,85.949,307.169,83.284,290.511,76.454z"/>
		<path style="fill:#EDEA55;" d="M319.835,79.951c0,0,13.5,1.284,15.667,10.309l5.62,22.853l-9.982-24.662
			C331.14,88.451,329.835,83.118,319.835,79.951z"/>
		<path style="fill:#EDEA55;" d="M34.605,7.784c-6.733,0.333-10.131,8.584-10.131,8.584l-3.939,11.583l4.968-11.5
			c4.417-7.25,9.75-7.417,9.75-7.417l55.716-1.25H34.605z"/>
	</g>
	<path style="fill:#FABF05;" d="M13.518,48.387c0,0,1.187-11.666,11.937-12.666h120l-119.877,1.75
		C25.578,37.471,17.605,38.553,13.518,48.387z"/>
	<path style="fill:#FABF05;" d="M77.349,135.969c0,0-21.811-2.959-31.094,20.857C46.255,156.826,55.075,137.258,77.349,135.969z"/>
	<path style="fill:#222222;" d="M79.372,148.586c0,0-17.57-2.854-24.789,13.397C54.583,161.983,62.372,147.951,79.372,148.586z"/>
	<path style="fill:#222222;" d="M296.1,148.586c0,0-17.569-2.854-24.788,13.397C271.311,161.983,279.1,147.951,296.1,148.586z"/>
	<path style="fill:#FABF05;" d="M294.31,135.969c0,0-21.81-2.959-31.093,20.857C263.217,156.826,272.037,137.258,294.31,135.969z"/>
</g>
</svg>
